<svg width="69" height="69" viewBox="0 0 69 69" fill="none" xmlns="http://www.w3.org/2000/svg">
<g clip-path="url(#clip0_507_691)">
<path d="M2.35826 0.175194C1.21275 0.619919 0.458061 1.41504 0.134624 2.50664C0.0268113 2.88398 -0.000141835 7.16953 0.0268113 18.0586C0.067241 34.2305 0.0268113 33.341 0.700639 34.2574C0.835405 34.4596 0.835405 34.5404 0.700639 34.7291C0.606303 34.8639 0.431108 35.1873 0.296343 35.4434C0.0807175 35.8881 0.067241 36.9797 0.067241 51.2109C0.067241 66.0756 0.0807175 66.5203 0.323296 67.0324C0.66021 67.7062 1.29361 68.3396 1.96744 68.6766C2.47955 68.9191 2.92427 68.9326 17.7889 68.9326C32.0202 68.9326 33.1118 68.9191 33.5565 68.7035C33.8126 68.5687 34.136 68.3936 34.2708 68.2992C34.4594 68.1645 34.5403 68.1645 34.7424 68.2992C34.8637 68.3936 35.1872 68.5687 35.4432 68.7035C35.8879 68.9191 36.9795 68.9326 51.2108 68.9326C66.0754 68.9326 66.5202 68.9191 67.0323 68.6766C67.7061 68.3396 68.3395 67.7062 68.6764 67.0324C68.919 66.5203 68.9325 66.0756 68.9325 51.2109C68.9325 36.9797 68.919 35.8881 68.7034 35.4434C68.5686 35.1873 68.3934 34.8639 68.2991 34.7426C68.1643 34.5404 68.1643 34.4596 68.2991 34.2574C68.3934 34.1361 68.5686 33.8127 68.7034 33.5566C68.919 33.1119 68.9325 32.0203 68.9325 17.7891C68.9325 2.92442 68.919 2.47968 68.6764 1.96758C68.3395 1.29375 67.7061 0.660347 67.0323 0.323433C66.5202 0.0808563 66.0754 0.0673828 51.2108 0.0673828C36.9795 0.0673828 35.8879 0.0808563 35.4432 0.296486C35.1872 0.431252 34.8637 0.606445 34.7424 0.700783C34.5403 0.835548 34.4594 0.835548 34.2708 0.700783C34.136 0.606445 33.8126 0.431252 33.5565 0.296486C33.1253 0.0808563 31.9932 0.0673828 17.9237 0.0404282C6.53599 0.0269547 2.65474 0.0539017 2.35826 0.175194ZM33.0444 2.53359L33.3544 2.84355L33.4217 8.66543C33.5026 15.1611 33.4622 14.9455 34.4729 15.6328C34.9176 15.9562 35.0659 15.9697 36.7774 15.9697C37.7881 15.9697 38.7719 15.9293 38.9606 15.8754C39.1493 15.8215 39.7153 15.4172 40.2139 14.9725C41.2381 14.0695 41.9928 13.7461 43.1249 13.7461C44.2165 13.7461 45.0385 14.0695 45.8741 14.8377C46.8174 15.6867 47.1948 16.5492 47.1948 17.816C47.1948 19.5141 46.2784 20.8617 44.6612 21.576C44.1356 21.8186 43.8391 21.859 42.9362 21.8051C41.6694 21.7377 41.2651 21.5625 40.2274 20.6191C39.2167 19.7027 39.0549 19.6353 37.586 19.568C35.6454 19.4736 34.8503 19.6084 34.2708 20.1205C33.4083 20.8752 33.4217 20.7943 33.4217 27.4248V33.4219H27.5594H21.6971V32.1012C21.6971 30.7939 21.6971 30.767 22.1149 30.3762C23.4221 29.1633 24.069 27.4383 23.9612 25.4303C23.9073 24.3387 23.8264 24.0287 23.4086 23.1662C21.9262 20.0936 18.2202 18.7729 15.1206 20.2148C14.1772 20.6596 12.9374 21.7512 12.4522 22.5867C10.9967 25.0799 11.401 28.3682 13.3956 30.3088L13.8807 30.7805V32.1012V33.4354L8.35533 33.3949L2.84341 33.3545L2.53345 33.0445L2.22349 32.7346L2.19654 17.9508C2.16958 6.2666 2.19654 3.09961 2.3313 2.83008C2.68169 2.1293 2.1022 2.15625 17.9506 2.19668L32.7344 2.22363L33.0444 2.53359ZM66.4663 2.53359L66.7762 2.84355V17.7891V32.7346L66.4663 33.0445L66.1563 33.3545L60.3344 33.4219C53.8387 33.5027 54.0544 33.4623 53.367 34.473C53.0436 34.9178 53.0301 35.066 53.0301 36.7775C53.0301 37.7883 53.0706 38.7721 53.1245 38.9607C53.1784 39.1494 53.5557 39.6885 53.9735 40.1467C54.9977 41.2922 55.1594 41.6561 55.2268 42.9363C55.2807 43.9066 55.2403 44.1357 54.9573 44.7691C53.7579 47.3836 50.4561 48.0305 48.3942 46.0494C47.5991 45.2812 47.1678 44.2975 47.1678 43.2059C47.1678 42.0199 47.4778 41.2518 48.3133 40.2949C48.7176 39.8502 49.1219 39.3516 49.2028 39.1898C49.4049 38.8125 49.5262 36.5484 49.3915 35.5242C49.3241 34.9312 49.2028 34.6348 48.8794 34.2709C48.1247 33.4084 48.2055 33.4219 41.5751 33.4219H35.578V27.5596V21.6973H36.8987C38.2059 21.6973 38.2329 21.6973 38.6237 22.115C39.8366 23.4223 41.5616 24.0691 43.5696 23.9613C44.6612 23.9074 44.9711 23.8266 45.8336 23.4088C48.9063 21.9264 50.227 18.2203 48.785 15.1207C48.3403 14.1773 47.2487 12.9375 46.4131 12.4523C43.92 10.9969 40.6317 11.4012 38.6911 13.3957L38.2194 13.8809H36.8987H35.578V8.51719C35.578 2.80312 35.5915 2.66836 36.2518 2.33144C36.5213 2.19668 39.6883 2.16972 51.3725 2.19668L66.1563 2.22363L66.4663 2.53359ZM19.6352 22.2498C20.5516 22.6945 21.1176 23.301 21.5758 24.3387C21.8184 24.8643 21.8588 25.1607 21.8049 26.0637C21.7376 27.3305 21.5624 27.7348 20.619 28.7725C19.7026 29.7832 19.6352 29.9449 19.5678 31.4139C19.4735 33.3545 19.6083 34.1496 20.1204 34.7291C20.8751 35.5916 20.7942 35.5781 27.4247 35.5781H33.4217V41.4404V47.3027H32.101H30.7803L30.3086 46.8176C28.368 44.823 25.0797 44.4187 22.5866 45.8742C22.2766 46.0494 21.7106 46.5346 21.3198 46.9523C19.0692 49.3377 19.0692 53.0842 21.3198 55.4695C22.5731 56.7902 24.0151 57.4102 25.8749 57.4102C27.6133 57.4102 29.1766 56.7633 30.3086 55.6043L30.7803 55.1191H32.101H33.4352L33.3948 60.6445L33.3544 66.1564L33.0444 66.4664L32.7344 66.7764H17.7889H2.84341L2.53345 66.4664L2.22349 66.1564V51.2109V36.2654L2.53345 35.9555L2.84341 35.6455L8.66529 35.5781C15.161 35.4973 14.9454 35.5377 15.6327 34.527C15.9561 34.0822 15.9696 33.934 15.9696 32.2225C15.9696 31.2117 15.9292 30.2279 15.8752 30.0393C15.8213 29.8506 15.417 29.2846 14.9723 28.7859C14.0694 27.7617 13.746 27.007 13.746 25.875C13.746 24.8104 14.0694 23.9748 14.7836 23.1797C16.1043 21.7107 17.8159 21.3873 19.6352 22.2498ZM47.3026 36.8988V38.2195L46.8174 38.6912C44.8094 40.6318 44.4186 43.9201 45.8876 46.4268C46.2919 47.1275 47.5452 48.3 48.2999 48.6773C50.0383 49.5668 52.1137 49.6072 53.8792 48.7852C54.836 48.3404 56.0624 47.2488 56.561 46.3863C58.003 43.9336 57.5852 40.6049 55.6042 38.6912L55.119 38.2195V36.8988V35.5646L60.6444 35.6051L66.1563 35.6455L66.4663 35.9555L66.7762 36.2654V51.2109V66.1564L66.4663 66.4664L66.1563 66.7764H51.2108H36.2653L35.9553 66.4664L35.6454 66.1564L35.578 60.3346C35.4971 53.8389 35.5376 54.0545 34.5268 53.3672C34.0821 53.0437 33.9338 53.0303 32.2223 53.0303C31.2116 53.0303 30.2278 53.0707 30.0391 53.1246C29.8504 53.1785 29.3114 53.5559 28.8532 53.9736C27.7077 54.9979 27.3438 55.1596 26.0635 55.227C25.0932 55.2809 24.8641 55.2404 24.2307 54.9574C21.6163 53.758 20.9694 50.4562 22.9504 48.3943C23.7186 47.5992 24.7024 47.168 25.794 47.168C26.9799 47.168 27.7481 47.4779 28.7049 48.3135C29.1497 48.7178 29.6483 49.1221 29.81 49.2029C30.1874 49.4051 32.4514 49.5264 33.4756 49.3916C34.0686 49.3242 34.3651 49.2029 34.729 48.8795C35.5915 48.1248 35.578 48.2057 35.578 41.5752V35.5781H41.4403H47.3026V36.8988Z" fill="white" stroke="white"/>
</g>
<defs>
<clipPath id="clip0_507_691">
<rect width="69" height="69" fill="white"/>
</clipPath>
</defs>
</svg>
