<svg width="71" height="70" viewBox="0 0 71 70" fill="none" xmlns="http://www.w3.org/2000/svg">
<g clip-path="url(#clip0_1113_1749)">
<path d="M2.89072 0.177734C1.72861 0.628906 0.962987 1.43555 0.634862 2.54297C0.525487 2.92578 0.498144 7.27344 0.525487 18.3203C0.566503 34.7266 0.525487 33.8242 1.20908 34.7539C1.3458 34.959 1.3458 35.041 1.20908 35.2324C1.11338 35.3691 0.935644 35.6973 0.798925 35.957C0.580175 36.4082 0.566503 37.5156 0.566503 51.9531C0.566503 67.0332 0.580175 67.4844 0.826269 68.0039C1.16807 68.6875 1.81064 69.3301 2.49424 69.6719C3.01377 69.918 3.46494 69.9316 18.545 69.9316C32.9825 69.9316 34.0899 69.918 34.5411 69.6992C34.8009 69.5625 35.129 69.3848 35.2657 69.2891C35.4571 69.1523 35.5392 69.1523 35.7442 69.2891C35.8673 69.3848 36.1954 69.5625 36.4552 69.6992C36.9063 69.918 38.0138 69.9316 52.4513 69.9316C67.5313 69.9316 67.9825 69.918 68.502 69.6719C69.1856 69.3301 69.8282 68.6875 70.17 68.0039C70.4161 67.4844 70.4298 67.0332 70.4298 51.9531C70.4298 37.5156 70.4161 36.4082 70.1974 35.957C70.0606 35.6973 69.8829 35.3691 69.7872 35.2461C69.6505 35.041 69.6505 34.959 69.7872 34.7539C69.8829 34.6309 70.0606 34.3027 70.1974 34.043C70.4161 33.5918 70.4298 32.4844 70.4298 18.0469C70.4298 2.9668 70.4161 2.51562 70.17 1.99609C69.8282 1.3125 69.1856 0.669922 68.502 0.328125C67.9825 0.0820312 67.5313 0.0683594 52.4513 0.0683594C38.0138 0.0683594 36.9063 0.0820312 36.4552 0.300781C36.1954 0.4375 35.8673 0.615234 35.7442 0.710938C35.5392 0.847656 35.4571 0.847656 35.2657 0.710938C35.129 0.615234 34.8009 0.4375 34.5411 0.300781C34.1036 0.0820312 32.9552 0.0683594 18.6817 0.0410156C7.129 0.0273438 3.1915 0.0546875 2.89072 0.177734ZM34.0216 2.57031L34.336 2.88477L34.4044 8.79102C34.4864 15.3809 34.4454 15.1621 35.4708 15.8594C35.922 16.1875 36.0724 16.2012 37.8087 16.2012C38.8341 16.2012 39.8321 16.1602 40.0235 16.1055C40.2149 16.0508 40.7892 15.6406 41.295 15.1895C42.3341 14.2734 43.0997 13.9453 44.2481 13.9453C45.3556 13.9453 46.1895 14.2734 47.0372 15.0527C47.9942 15.9141 48.377 16.7891 48.377 18.0742C48.377 19.7969 47.4474 21.1641 45.8067 21.8887C45.2735 22.1348 44.9728 22.1758 44.0567 22.1211C42.7716 22.0527 42.3614 21.875 41.3087 20.918C40.2833 19.9883 40.1192 19.9199 38.629 19.8516C36.6603 19.7559 35.8536 19.8926 35.2657 20.4121C34.3907 21.1777 34.4044 21.0957 34.4044 27.8223V33.9062H28.4571H22.5099V32.5664C22.5099 31.2402 22.5099 31.2129 22.9337 30.8164C24.2599 29.5859 24.9161 27.8359 24.8067 25.7988C24.752 24.6914 24.67 24.377 24.2462 23.502C22.7423 20.3848 18.9825 19.0449 15.838 20.5078C14.881 20.959 13.6231 22.0664 13.131 22.9141C11.6544 25.4434 12.0645 28.7793 14.088 30.748L14.5802 31.2266V32.5664V33.9199L8.97471 33.8789L3.38291 33.8379L3.06846 33.5234L2.754 33.209L2.72666 18.2109C2.69932 6.35742 2.72666 3.14453 2.86338 2.87109C3.21885 2.16016 2.63096 2.1875 18.7091 2.22852L33.7071 2.25586L34.0216 2.57031ZM67.9278 2.57031L68.2423 2.88477V18.0469V33.209L67.9278 33.5234L67.6134 33.8379L61.7071 33.9062C55.1173 33.9883 55.336 33.9473 54.6388 34.9727C54.3106 35.4238 54.297 35.5742 54.297 37.3105C54.297 38.3359 54.338 39.334 54.3927 39.5254C54.4474 39.7168 54.8302 40.2637 55.254 40.7285C56.2931 41.8906 56.4571 42.2598 56.5255 43.5586C56.5802 44.543 56.5392 44.7754 56.252 45.418C55.0353 48.0703 51.6856 48.7266 49.5938 46.7168C48.7872 45.9375 48.3497 44.9395 48.3497 43.832C48.3497 42.6289 48.6642 41.8496 49.5118 40.8789C49.922 40.4277 50.3321 39.9219 50.4142 39.7578C50.6192 39.375 50.7423 37.0781 50.6056 36.0391C50.5372 35.4375 50.4142 35.1367 50.086 34.7676C49.3204 33.8926 49.4024 33.9062 42.6759 33.9062H36.5919V27.959V22.0117H37.9317C39.2579 22.0117 39.2853 22.0117 39.6817 22.4355C40.9122 23.7617 42.6622 24.418 44.6993 24.3086C45.8067 24.2539 46.1212 24.1719 46.9962 23.748C50.1134 22.2441 51.4532 18.4844 49.9903 15.3398C49.5392 14.3828 48.4317 13.125 47.5841 12.6328C45.0548 11.1562 41.7188 11.5664 39.7501 13.5898L39.2716 14.082H37.9317H36.5919V8.64062C36.5919 2.84375 36.6056 2.70703 37.2755 2.36523C37.5489 2.22852 40.7618 2.20117 52.6153 2.22852L67.6134 2.25586L67.9278 2.57031ZM20.4181 22.5723C21.3478 23.0234 21.922 23.6387 22.3868 24.6914C22.6329 25.2246 22.6739 25.5254 22.6192 26.4414C22.5509 27.7266 22.3731 28.1367 21.4161 29.1895C20.4864 30.2148 20.4181 30.3789 20.3497 31.8691C20.254 33.8379 20.3907 34.6445 20.9103 35.2324C21.6759 36.1074 21.5938 36.0938 28.3204 36.0938H34.4044V42.041V47.9883H33.0645H31.7247L31.2462 47.4961C29.2774 45.4727 25.9415 45.0625 23.4122 46.5391C23.0978 46.7168 22.5235 47.209 22.127 47.6328C19.8438 50.0527 19.8438 53.8535 22.127 56.2734C23.3985 57.6133 24.8614 58.2422 26.7481 58.2422C28.5118 58.2422 30.0978 57.5859 31.2462 56.4102L31.7247 55.918H33.0645H34.4181L34.377 61.5234L34.336 67.1152L34.0216 67.4297L33.7071 67.7441H18.545H3.38291L3.06846 67.4297L2.754 67.1152V51.9531V36.791L3.06846 36.4766L3.38291 36.1621L9.28916 36.0938C15.879 36.0117 15.6603 36.0527 16.3575 35.0273C16.6856 34.5762 16.6993 34.4258 16.6993 32.6895C16.6993 31.6641 16.6583 30.666 16.6036 30.4746C16.5489 30.2832 16.1388 29.709 15.6876 29.2031C14.7716 28.1641 14.4435 27.3984 14.4435 26.25C14.4435 25.1699 14.7716 24.3223 15.4962 23.5156C16.836 22.0254 18.5724 21.6973 20.4181 22.5723ZM48.4864 37.4336V38.7734L47.9942 39.252C45.9571 41.2207 45.5606 44.5566 47.0509 47.0996C47.461 47.8105 48.7325 49 49.4981 49.3828C51.2618 50.2852 53.3673 50.3262 55.1583 49.4922C56.129 49.041 57.3731 47.9336 57.879 47.0586C59.3419 44.5703 58.9181 41.1934 56.9083 39.252L56.4161 38.7734V37.4336V36.0801L62.0216 36.1211L67.6134 36.1621L67.9278 36.4766L68.2423 36.791V51.9531V67.1152L67.9278 67.4297L67.6134 67.7441H52.4513H37.2892L36.9747 67.4297L36.6603 67.1152L36.5919 61.209C36.5099 54.6191 36.5509 54.8379 35.5255 54.1406C35.0743 53.8125 34.9239 53.7988 33.1876 53.7988C32.1622 53.7988 31.1642 53.8398 30.9728 53.8945C30.7813 53.9492 30.2345 54.332 29.7696 54.7559C28.6075 55.7949 28.2384 55.959 26.9395 56.0273C25.9552 56.082 25.7227 56.041 25.0802 55.7539C22.4278 54.5371 21.7716 51.1875 23.7813 49.0957C24.5606 48.2891 25.5587 47.8516 26.6661 47.8516C27.8692 47.8516 28.6485 48.166 29.6192 49.0137C30.0704 49.4238 30.5763 49.834 30.7403 49.916C31.1231 50.1211 33.42 50.2441 34.4591 50.1074C35.0606 50.0391 35.3614 49.916 35.7306 49.5879C36.6056 48.8223 36.5919 48.9043 36.5919 42.1777V36.0938H42.5392H48.4864V37.4336Z" fill="white" stroke="white"/>
</g>
<defs>
<clipPath id="clip0_1113_1749">
<rect width="70" height="70" fill="white" transform="translate(0.5)"/>
</clipPath>
</defs>
</svg>
