<svg width="69" height="69" viewBox="0 0 69 69" fill="none" xmlns="http://www.w3.org/2000/svg">
<g clip-path="url(#clip0_91_900)">
<mask id="path-1-inside-1_91_900" fill="white">
<path d="M2.3585 0.175194C1.21299 0.619919 0.458305 1.41504 0.134868 2.50664C0.0270554 2.88398 0.000102306 7.16953 0.0270554 18.0586C0.0674851 34.2305 0.0270554 33.341 0.700884 34.2574C0.835649 34.4596 0.835649 34.5404 0.700884 34.7291C0.606548 34.8639 0.431352 35.1873 0.296587 35.4434C0.0809617 35.8881 0.0674851 36.9797 0.0674851 51.2109C0.0674851 66.0756 0.0809617 66.5203 0.32354 67.0324C0.660454 67.7062 1.29385 68.3396 1.96768 68.6766C2.47979 68.9191 2.92452 68.9326 17.7892 68.9326C32.0204 68.9326 33.112 68.9191 33.5567 68.7035C33.8128 68.5687 34.1362 68.3936 34.271 68.2992C34.4597 68.1645 34.5405 68.1645 34.7427 68.2992C34.864 68.3936 35.1874 68.5687 35.4435 68.7035C35.8882 68.9191 36.9798 68.9326 51.211 68.9326C66.0757 68.9326 66.5204 68.9191 67.0325 68.6766C67.7064 68.3396 68.3398 67.7062 68.6767 67.0324C68.9192 66.5203 68.9327 66.0756 68.9327 51.2109C68.9327 36.9797 68.9192 35.8881 68.7036 35.4434C68.5688 35.1873 68.3937 34.8639 68.2993 34.7426C68.1646 34.5404 68.1646 34.4596 68.2993 34.2574C68.3937 34.1361 68.5688 33.8127 68.7036 33.5566C68.9192 33.1119 68.9327 32.0203 68.9327 17.7891C68.9327 2.92442 68.9192 2.47968 68.6767 1.96758C68.3398 1.29375 67.7064 0.660347 67.0325 0.323433C66.5204 0.0808563 66.0757 0.0673828 51.211 0.0673828C36.9798 0.0673828 35.8882 0.0808563 35.4435 0.296486C35.1874 0.431252 34.864 0.606445 34.7427 0.700783C34.5405 0.835548 34.4597 0.835548 34.271 0.700783C34.1362 0.606445 33.8128 0.431252 33.5567 0.296486C33.1255 0.0808563 31.9935 0.0673828 17.9239 0.0404282C6.53623 0.0269547 2.65499 0.0539017 2.3585 0.175194ZM33.0446 2.53359L33.3546 2.84355L33.422 8.66543C33.5028 15.1611 33.4624 14.9455 34.4732 15.6328C34.9179 15.9562 35.0661 15.9697 36.7776 15.9697C37.7884 15.9697 38.7722 15.9293 38.9608 15.8754C39.1495 15.8215 39.7155 15.4172 40.2142 14.9725C41.2384 14.0695 41.9931 13.7461 43.1251 13.7461C44.2167 13.7461 45.0388 14.0695 45.8743 14.8377C46.8177 15.6867 47.195 16.5492 47.195 17.816C47.195 19.5141 46.2786 20.8617 44.6614 21.576C44.1358 21.8186 43.8394 21.859 42.9364 21.8051C41.6696 21.7377 41.2653 21.5625 40.2276 20.6191C39.2169 19.7027 39.0552 19.6353 37.5862 19.568C35.6456 19.4736 34.8505 19.6084 34.271 20.1205C33.4085 20.8752 33.422 20.7943 33.422 27.4248V33.4219H27.5597H21.6974V32.1012C21.6974 30.7939 21.6974 30.767 22.1151 30.3762C23.4224 29.1633 24.0692 27.4383 23.9614 25.4303C23.9075 24.3387 23.8267 24.0287 23.4089 23.1662C21.9265 20.0936 18.2204 18.7729 15.1208 20.2148C14.1774 20.6596 12.9376 21.7512 12.4524 22.5867C10.997 25.0799 11.4013 28.3682 13.3958 30.3088L13.881 30.7805V32.1012V33.4354L8.35557 33.3949L2.84366 33.3545L2.5337 33.0445L2.22374 32.7346L2.19678 17.9508C2.16983 6.2666 2.19678 3.09961 2.33155 2.83008C2.68194 2.1293 2.10245 2.15625 17.9509 2.19668L32.7347 2.22363L33.0446 2.53359ZM66.4665 2.53359L66.7765 2.84355V17.7891V32.7346L66.4665 33.0445L66.1565 33.3545L60.3347 33.4219C53.839 33.5027 54.0546 33.4623 53.3673 34.473C53.0439 34.9178 53.0304 35.066 53.0304 36.7775C53.0304 37.7883 53.0708 38.7721 53.1247 38.9607C53.1786 39.1494 53.556 39.6885 53.9737 40.1467C54.998 41.2922 55.1597 41.6561 55.2271 42.9363C55.281 43.9066 55.2405 44.1357 54.9575 44.7691C53.7581 47.3836 50.4564 48.0305 48.3944 46.0494C47.5993 45.2812 47.1681 44.2975 47.1681 43.2059C47.1681 42.0199 47.478 41.2518 48.3136 40.2949C48.7179 39.8502 49.1222 39.3516 49.203 39.1898C49.4052 38.8125 49.5265 36.5484 49.3917 35.5242C49.3243 34.9312 49.203 34.6348 48.8796 34.2709C48.1249 33.4084 48.2058 33.4219 41.5753 33.4219H35.5782V27.5596V21.6973H36.8989C38.2062 21.6973 38.2331 21.6973 38.6239 22.115C39.8368 23.4223 41.5618 24.0691 43.5698 23.9613C44.6614 23.9074 44.9714 23.8266 45.8339 23.4088C48.9065 21.9264 50.2273 18.2203 48.7853 15.1207C48.3405 14.1773 47.2489 12.9375 46.4134 12.4523C43.9202 10.9969 40.6319 11.4012 38.6913 13.3957L38.2196 13.8809H36.8989H35.5782V8.51719C35.5782 2.80312 35.5917 2.66836 36.2521 2.33144C36.5216 2.19668 39.6886 2.16972 51.3728 2.19668L66.1565 2.22363L66.4665 2.53359ZM19.6355 22.2498C20.5519 22.6945 21.1179 23.301 21.5761 24.3387C21.8187 24.8643 21.8591 25.1607 21.8052 26.0637C21.7378 27.3305 21.5626 27.7348 20.6192 28.7725C19.7028 29.7832 19.6355 29.9449 19.5681 31.4139C19.4737 33.3545 19.6085 34.1496 20.1206 34.7291C20.8753 35.5916 20.7944 35.5781 27.4249 35.5781H33.422V41.4404V47.3027H32.1013H30.7806L30.3089 46.8176C28.3683 44.823 25.08 44.4187 22.5868 45.8742C22.2769 46.0494 21.7108 46.5346 21.32 46.9523C19.0694 49.3377 19.0694 53.0842 21.32 55.4695C22.5733 56.7902 24.0153 57.4102 25.8751 57.4102C27.6136 57.4102 29.1769 56.7633 30.3089 55.6043L30.7806 55.1191H32.1013H33.4355L33.395 60.6445L33.3546 66.1564L33.0446 66.4664L32.7347 66.7764H17.7892H2.84366L2.5337 66.4664L2.22374 66.1564V51.2109V36.2654L2.5337 35.9555L2.84366 35.6455L8.66553 35.5781C15.1612 35.4973 14.9456 35.5377 15.6329 34.527C15.9564 34.0822 15.9698 33.934 15.9698 32.2225C15.9698 31.2117 15.9294 30.2279 15.8755 30.0393C15.8216 29.8506 15.4173 29.2846 14.9726 28.7859C14.0696 27.7617 13.7462 27.007 13.7462 25.875C13.7462 24.8104 14.0696 23.9748 14.7839 23.1797C16.1046 21.7107 17.8161 21.3873 19.6355 22.2498ZM47.3028 36.8988V38.2195L46.8177 38.6912C44.8097 40.6318 44.4189 43.9201 45.8878 46.4268C46.2921 47.1275 47.5454 48.3 48.3001 48.6773C50.0386 49.5668 52.114 49.6072 53.8794 48.7852C54.8362 48.3404 56.0626 47.2488 56.5612 46.3863C58.0032 43.9336 57.5855 40.6049 55.6044 38.6912L55.1192 38.2195V36.8988V35.5646L60.6446 35.6051L66.1565 35.6455L66.4665 35.9555L66.7765 36.2654V51.2109V66.1564L66.4665 66.4664L66.1565 66.7764H51.211H36.2655L35.9556 66.4664L35.6456 66.1564L35.5782 60.3346C35.4974 53.8389 35.5378 54.0545 34.5271 53.3672C34.0823 53.0437 33.9341 53.0303 32.2226 53.0303C31.2118 53.0303 30.228 53.0707 30.0394 53.1246C29.8507 53.1785 29.3116 53.5559 28.8534 53.9736C27.7079 54.9979 27.344 55.1596 26.0638 55.227C25.0935 55.2809 24.8644 55.2404 24.231 54.9574C21.6165 53.758 20.9696 50.4562 22.9507 48.3943C23.7189 47.5992 24.7026 47.168 25.7942 47.168C26.9802 47.168 27.7483 47.4779 28.7052 48.3135C29.1499 48.7178 29.6485 49.1221 29.8103 49.2029C30.1876 49.4051 32.4517 49.5264 33.4759 49.3916C34.0689 49.3242 34.3653 49.2029 34.7292 48.8795C35.5917 48.1248 35.5782 48.2057 35.5782 41.5752V35.5781H41.4405H47.3028V36.8988Z"/>
</mask>
<path d="M2.3585 0.175194C1.21299 0.619919 0.458305 1.41504 0.134868 2.50664C0.0270554 2.88398 0.000102306 7.16953 0.0270554 18.0586C0.0674851 34.2305 0.0270554 33.341 0.700884 34.2574C0.835649 34.4596 0.835649 34.5404 0.700884 34.7291C0.606548 34.8639 0.431352 35.1873 0.296587 35.4434C0.0809617 35.8881 0.0674851 36.9797 0.0674851 51.2109C0.0674851 66.0756 0.0809617 66.5203 0.32354 67.0324C0.660454 67.7062 1.29385 68.3396 1.96768 68.6766C2.47979 68.9191 2.92452 68.9326 17.7892 68.9326C32.0204 68.9326 33.112 68.9191 33.5567 68.7035C33.8128 68.5687 34.1362 68.3936 34.271 68.2992C34.4597 68.1645 34.5405 68.1645 34.7427 68.2992C34.864 68.3936 35.1874 68.5687 35.4435 68.7035C35.8882 68.9191 36.9798 68.9326 51.211 68.9326C66.0757 68.9326 66.5204 68.9191 67.0325 68.6766C67.7064 68.3396 68.3398 67.7062 68.6767 67.0324C68.9192 66.5203 68.9327 66.0756 68.9327 51.2109C68.9327 36.9797 68.9192 35.8881 68.7036 35.4434C68.5688 35.1873 68.3937 34.8639 68.2993 34.7426C68.1646 34.5404 68.1646 34.4596 68.2993 34.2574C68.3937 34.1361 68.5688 33.8127 68.7036 33.5566C68.9192 33.1119 68.9327 32.0203 68.9327 17.7891C68.9327 2.92442 68.9192 2.47968 68.6767 1.96758C68.3398 1.29375 67.7064 0.660347 67.0325 0.323433C66.5204 0.0808563 66.0757 0.0673828 51.211 0.0673828C36.9798 0.0673828 35.8882 0.0808563 35.4435 0.296486C35.1874 0.431252 34.864 0.606445 34.7427 0.700783C34.5405 0.835548 34.4597 0.835548 34.271 0.700783C34.1362 0.606445 33.8128 0.431252 33.5567 0.296486C33.1255 0.0808563 31.9935 0.0673828 17.9239 0.0404282C6.53623 0.0269547 2.65499 0.0539017 2.3585 0.175194ZM33.0446 2.53359L33.3546 2.84355L33.422 8.66543C33.5028 15.1611 33.4624 14.9455 34.4732 15.6328C34.9179 15.9562 35.0661 15.9697 36.7776 15.9697C37.7884 15.9697 38.7722 15.9293 38.9608 15.8754C39.1495 15.8215 39.7155 15.4172 40.2142 14.9725C41.2384 14.0695 41.9931 13.7461 43.1251 13.7461C44.2167 13.7461 45.0388 14.0695 45.8743 14.8377C46.8177 15.6867 47.195 16.5492 47.195 17.816C47.195 19.5141 46.2786 20.8617 44.6614 21.576C44.1358 21.8186 43.8394 21.859 42.9364 21.8051C41.6696 21.7377 41.2653 21.5625 40.2276 20.6191C39.2169 19.7027 39.0552 19.6353 37.5862 19.568C35.6456 19.4736 34.8505 19.6084 34.271 20.1205C33.4085 20.8752 33.422 20.7943 33.422 27.4248V33.4219H27.5597H21.6974V32.1012C21.6974 30.7939 21.6974 30.767 22.1151 30.3762C23.4224 29.1633 24.0692 27.4383 23.9614 25.4303C23.9075 24.3387 23.8267 24.0287 23.4089 23.1662C21.9265 20.0936 18.2204 18.7729 15.1208 20.2148C14.1774 20.6596 12.9376 21.7512 12.4524 22.5867C10.997 25.0799 11.4013 28.3682 13.3958 30.3088L13.881 30.7805V32.1012V33.4354L8.35557 33.3949L2.84366 33.3545L2.5337 33.0445L2.22374 32.7346L2.19678 17.9508C2.16983 6.2666 2.19678 3.09961 2.33155 2.83008C2.68194 2.1293 2.10245 2.15625 17.9509 2.19668L32.7347 2.22363L33.0446 2.53359ZM66.4665 2.53359L66.7765 2.84355V17.7891V32.7346L66.4665 33.0445L66.1565 33.3545L60.3347 33.4219C53.839 33.5027 54.0546 33.4623 53.3673 34.473C53.0439 34.9178 53.0304 35.066 53.0304 36.7775C53.0304 37.7883 53.0708 38.7721 53.1247 38.9607C53.1786 39.1494 53.556 39.6885 53.9737 40.1467C54.998 41.2922 55.1597 41.6561 55.2271 42.9363C55.281 43.9066 55.2405 44.1357 54.9575 44.7691C53.7581 47.3836 50.4564 48.0305 48.3944 46.0494C47.5993 45.2812 47.1681 44.2975 47.1681 43.2059C47.1681 42.0199 47.478 41.2518 48.3136 40.2949C48.7179 39.8502 49.1222 39.3516 49.203 39.1898C49.4052 38.8125 49.5265 36.5484 49.3917 35.5242C49.3243 34.9312 49.203 34.6348 48.8796 34.2709C48.1249 33.4084 48.2058 33.4219 41.5753 33.4219H35.5782V27.5596V21.6973H36.8989C38.2062 21.6973 38.2331 21.6973 38.6239 22.115C39.8368 23.4223 41.5618 24.0691 43.5698 23.9613C44.6614 23.9074 44.9714 23.8266 45.8339 23.4088C48.9065 21.9264 50.2273 18.2203 48.7853 15.1207C48.3405 14.1773 47.2489 12.9375 46.4134 12.4523C43.9202 10.9969 40.6319 11.4012 38.6913 13.3957L38.2196 13.8809H36.8989H35.5782V8.51719C35.5782 2.80312 35.5917 2.66836 36.2521 2.33144C36.5216 2.19668 39.6886 2.16972 51.3728 2.19668L66.1565 2.22363L66.4665 2.53359ZM19.6355 22.2498C20.5519 22.6945 21.1179 23.301 21.5761 24.3387C21.8187 24.8643 21.8591 25.1607 21.8052 26.0637C21.7378 27.3305 21.5626 27.7348 20.6192 28.7725C19.7028 29.7832 19.6355 29.9449 19.5681 31.4139C19.4737 33.3545 19.6085 34.1496 20.1206 34.7291C20.8753 35.5916 20.7944 35.5781 27.4249 35.5781H33.422V41.4404V47.3027H32.1013H30.7806L30.3089 46.8176C28.3683 44.823 25.08 44.4187 22.5868 45.8742C22.2769 46.0494 21.7108 46.5346 21.32 46.9523C19.0694 49.3377 19.0694 53.0842 21.32 55.4695C22.5733 56.7902 24.0153 57.4102 25.8751 57.4102C27.6136 57.4102 29.1769 56.7633 30.3089 55.6043L30.7806 55.1191H32.1013H33.4355L33.395 60.6445L33.3546 66.1564L33.0446 66.4664L32.7347 66.7764H17.7892H2.84366L2.5337 66.4664L2.22374 66.1564V51.2109V36.2654L2.5337 35.9555L2.84366 35.6455L8.66553 35.5781C15.1612 35.4973 14.9456 35.5377 15.6329 34.527C15.9564 34.0822 15.9698 33.934 15.9698 32.2225C15.9698 31.2117 15.9294 30.2279 15.8755 30.0393C15.8216 29.8506 15.4173 29.2846 14.9726 28.7859C14.0696 27.7617 13.7462 27.007 13.7462 25.875C13.7462 24.8104 14.0696 23.9748 14.7839 23.1797C16.1046 21.7107 17.8161 21.3873 19.6355 22.2498ZM47.3028 36.8988V38.2195L46.8177 38.6912C44.8097 40.6318 44.4189 43.9201 45.8878 46.4268C46.2921 47.1275 47.5454 48.3 48.3001 48.6773C50.0386 49.5668 52.114 49.6072 53.8794 48.7852C54.8362 48.3404 56.0626 47.2488 56.5612 46.3863C58.0032 43.9336 57.5855 40.6049 55.6044 38.6912L55.1192 38.2195V36.8988V35.5646L60.6446 35.6051L66.1565 35.6455L66.4665 35.9555L66.7765 36.2654V51.2109V66.1564L66.4665 66.4664L66.1565 66.7764H51.211H36.2655L35.9556 66.4664L35.6456 66.1564L35.5782 60.3346C35.4974 53.8389 35.5378 54.0545 34.5271 53.3672C34.0823 53.0437 33.9341 53.0303 32.2226 53.0303C31.2118 53.0303 30.228 53.0707 30.0394 53.1246C29.8507 53.1785 29.3116 53.5559 28.8534 53.9736C27.7079 54.9979 27.344 55.1596 26.0638 55.227C25.0935 55.2809 24.8644 55.2404 24.231 54.9574C21.6165 53.758 20.9696 50.4562 22.9507 48.3943C23.7189 47.5992 24.7026 47.168 25.7942 47.168C26.9802 47.168 27.7483 47.4779 28.7052 48.3135C29.1499 48.7178 29.6485 49.1221 29.8103 49.2029C30.1876 49.4051 32.4517 49.5264 33.4759 49.3916C34.0689 49.3242 34.3653 49.2029 34.7292 48.8795C35.5917 48.1248 35.5782 48.2057 35.5782 41.5752V35.5781H41.4405H47.3028V36.8988Z" fill="#1E4DC2" stroke="#1E4DC2" stroke-width="2" mask="url(#path-1-inside-1_91_900)"/>
</g>
<defs>
<clipPath id="clip0_91_900">
<rect width="69" height="69" fill="white"/>
</clipPath>
</defs>
</svg>
