<svg width="60" height="60" viewBox="0 0 60 60" fill="none" xmlns="http://www.w3.org/2000/svg">
<g clip-path="url(#clip0_1113_1763)">
<path d="M2.05142 0.152344C1.05533 0.539062 0.399078 1.23047 0.117828 2.17969C0.0240784 2.50781 0.000640932 6.23438 0.0240784 15.7031C0.0592347 29.7656 0.0240784 28.9922 0.610016 29.7891C0.727203 29.9648 0.727203 30.0352 0.610016 30.1992C0.527985 30.3164 0.375641 30.5977 0.258453 30.8203C0.0709534 31.207 0.0592347 32.1562 0.0592347 44.5312C0.0592347 57.457 0.0709534 57.8438 0.281891 58.2891C0.57486 58.875 1.12564 59.4258 1.71158 59.7188C2.15689 59.9297 2.54361 59.9414 15.4694 59.9414C27.8444 59.9414 28.7936 59.9297 29.1803 59.7422C29.403 59.625 29.6842 59.4727 29.8014 59.3906C29.9655 59.2734 30.0358 59.2734 30.2116 59.3906C30.317 59.4727 30.5983 59.625 30.821 59.7422C31.2077 59.9297 32.1569 59.9414 44.5319 59.9414C57.4577 59.9414 57.8444 59.9297 58.2897 59.7188C58.8756 59.4258 59.4264 58.875 59.7194 58.2891C59.9303 57.8438 59.942 57.457 59.942 44.5312C59.942 32.1562 59.9303 31.207 59.7428 30.8203C59.6256 30.5977 59.4733 30.3164 59.3913 30.2109C59.2741 30.0352 59.2741 29.9648 59.3913 29.7891C59.4733 29.6836 59.6256 29.4023 59.7428 29.1797C59.9303 28.793 59.942 27.8438 59.942 15.4688C59.942 2.54297 59.9303 2.15625 59.7194 1.71094C59.4264 1.125 58.8756 0.574219 58.2897 0.28125C57.8444 0.0703125 57.4577 0.0585938 44.5319 0.0585938C32.1569 0.0585938 31.2077 0.0703125 30.821 0.257812C30.5983 0.375 30.317 0.527344 30.2116 0.609375C30.0358 0.726562 29.9655 0.726562 29.8014 0.609375C29.6842 0.527344 29.403 0.375 29.1803 0.257812C28.8053 0.0703125 27.821 0.0585938 15.5866 0.0351562C5.68423 0.0234375 2.30923 0.046875 2.05142 0.152344ZM28.735 2.20312L29.0045 2.47266L29.0631 7.53516C29.1335 13.1836 29.0983 12.9961 29.9772 13.5938C30.3639 13.875 30.4928 13.8867 31.9811 13.8867C32.86 13.8867 33.7155 13.8516 33.8795 13.8047C34.0436 13.7578 34.5358 13.4062 34.9694 13.0195C35.86 12.2344 36.5163 11.9531 37.5006 11.9531C38.4499 11.9531 39.1647 12.2344 39.8913 12.9023C40.7116 13.6406 41.0397 14.3906 41.0397 15.4922C41.0397 16.9688 40.2428 18.1406 38.8366 18.7617C38.3795 18.9727 38.1217 19.0078 37.3366 18.9609C36.235 18.9023 35.8835 18.75 34.9811 17.9297C34.1022 17.1328 33.9616 17.0742 32.6842 17.0156C30.9967 16.9336 30.3053 17.0508 29.8014 17.4961C29.0514 18.1523 29.0631 18.082 29.0631 23.8477V29.0625H23.9655H18.8678V27.9141C18.8678 26.7773 18.8678 26.7539 19.2311 26.4141C20.3678 25.3594 20.9303 23.8594 20.8366 22.1133C20.7897 21.1641 20.7194 20.8945 20.3561 20.1445C19.067 17.4727 15.8444 16.3242 13.1491 17.5781C12.3288 17.9648 11.2506 18.9141 10.8288 19.6406C9.56314 21.8086 9.9147 24.668 11.6491 26.3555L12.071 26.7656V27.9141V29.0742L7.26627 29.0391L2.4733 29.0039L2.20377 28.7344L1.93423 28.4648L1.9108 15.6094C1.88736 5.44922 1.9108 2.69531 2.02798 2.46094C2.33267 1.85156 1.82877 1.875 15.61 1.91016L28.4655 1.93359L28.735 2.20312ZM57.7975 2.20312L58.067 2.47266V15.4688V28.4648L57.7975 28.7344L57.528 29.0039L52.4655 29.0625C46.817 29.1328 47.0045 29.0977 46.4069 29.9766C46.1256 30.3633 46.1139 30.4922 46.1139 31.9805C46.1139 32.8594 46.1491 33.7148 46.196 33.8789C46.2428 34.043 46.571 34.5117 46.9342 34.9102C47.8249 35.9062 47.9655 36.2227 48.0241 37.3359C48.071 38.1797 48.0358 38.3789 47.7897 38.9297C46.7467 41.2031 43.8756 41.7656 42.0827 40.043C41.3913 39.375 41.0163 38.5195 41.0163 37.5703C41.0163 36.5391 41.2858 35.8711 42.0124 35.0391C42.3639 34.6523 42.7155 34.2188 42.7858 34.0781C42.9616 33.75 43.067 31.7812 42.9499 30.8906C42.8913 30.375 42.7858 30.1172 42.5045 29.8008C41.8483 29.0508 41.9186 29.0625 36.153 29.0625H30.9381V23.9648V18.8672H32.0866C33.2233 18.8672 33.2467 18.8672 33.5866 19.2305C34.6413 20.3672 36.1413 20.9297 37.8874 20.8359C38.8366 20.7891 39.1061 20.7188 39.8561 20.3555C42.528 19.0664 43.6764 15.8438 42.4225 13.1484C42.0358 12.3281 41.0866 11.25 40.36 10.8281C38.192 9.5625 35.3327 9.91406 33.6452 11.6484L33.235 12.0703H32.0866H30.9381V7.40625C30.9381 2.4375 30.9499 2.32031 31.5241 2.02734C31.7585 1.91016 34.5124 1.88672 44.6725 1.91016L57.528 1.93359L57.7975 2.20312ZM17.0749 19.3477C17.8717 19.7344 18.3639 20.2617 18.7624 21.1641C18.9733 21.6211 19.0085 21.8789 18.9616 22.6641C18.903 23.7656 18.7506 24.1172 17.9303 25.0195C17.1335 25.8984 17.0749 26.0391 17.0163 27.3164C16.9342 29.0039 17.0514 29.6953 17.4967 30.1992C18.153 30.9492 18.0827 30.9375 23.8483 30.9375H29.0631V36.0352V41.1328H27.9147H26.7663L26.3561 40.7109C24.6686 38.9766 21.8092 38.625 19.6413 39.8906C19.3717 40.043 18.8795 40.4648 18.5397 40.8281C16.5827 42.9023 16.5827 46.1602 18.5397 48.2344C19.6295 49.3828 20.8835 49.9219 22.5006 49.9219C24.0124 49.9219 25.3717 49.3594 26.3561 48.3516L26.7663 47.9297H27.9147H29.0749L29.0397 52.7344L29.0045 57.5273L28.735 57.7969L28.4655 58.0664H15.4694H2.4733L2.20377 57.7969L1.93423 57.5273V44.5312V31.5352L2.20377 31.2656L2.4733 30.9961L7.5358 30.9375C13.1842 30.8672 12.9967 30.9023 13.5944 30.0234C13.8756 29.6367 13.8874 29.5078 13.8874 28.0195C13.8874 27.1406 13.8522 26.2852 13.8053 26.1211C13.7585 25.957 13.4069 25.4648 13.0202 25.0312C12.235 24.1406 11.9538 23.4844 11.9538 22.5C11.9538 21.5742 12.235 20.8477 12.8561 20.1562C14.0045 18.8789 15.4928 18.5977 17.0749 19.3477ZM41.1335 32.0859V33.2344L40.7116 33.6445C38.9655 35.332 38.6256 38.1914 39.903 40.3711C40.2545 40.9805 41.3444 42 42.0006 42.3281C43.5124 43.1016 45.317 43.1367 46.8522 42.4219C47.6842 42.0352 48.7506 41.0859 49.1842 40.3359C50.4381 38.2031 50.0749 35.3086 48.3522 33.6445L47.9303 33.2344V32.0859V30.9258L52.735 30.9609L57.528 30.9961L57.7975 31.2656L58.067 31.5352V44.5312V57.5273L57.7975 57.7969L57.528 58.0664H44.5319H31.5358L31.2663 57.7969L30.9967 57.5273L30.9381 52.4648C30.8678 46.8164 30.903 47.0039 30.0241 46.4062C29.6374 46.125 29.5085 46.1133 28.0202 46.1133C27.1413 46.1133 26.2858 46.1484 26.1217 46.1953C25.9577 46.2422 25.4889 46.5703 25.0905 46.9336C24.0944 47.8242 23.778 47.9648 22.6647 48.0234C21.821 48.0703 21.6217 48.0352 21.071 47.7891C18.7975 46.7461 18.235 43.875 19.9577 42.082C20.6256 41.3906 21.4811 41.0156 22.4303 41.0156C23.4616 41.0156 24.1295 41.2852 24.9616 42.0117C25.3483 42.3633 25.7819 42.7148 25.9225 42.7852C26.2506 42.9609 28.2194 43.0664 29.11 42.9492C29.6256 42.8906 29.8835 42.7852 30.1999 42.5039C30.9499 41.8477 30.9381 41.918 30.9381 36.1523V30.9375H36.0358H41.1335V32.0859Z" fill="white" stroke="white"/>
</g>
<defs>
<clipPath id="clip0_1113_1763">
<rect width="60" height="60" fill="white"/>
</clipPath>
</defs>
</svg>
