<svg width="26" height="26" viewBox="0 0 26 26" fill="none" xmlns="http://www.w3.org/2000/svg">
<path d="M1.24337 24.5002C1.24339 24.5 1.24496 24.4998 1.24803 24.5001C1.24489 24.5005 1.24336 24.5004 1.24337 24.5002ZM1.46455 25.1192C1.46454 25.1192 1.46478 25.1187 1.46536 25.1178L1.46455 25.1192ZM10.0457 18.2114C9.66325 17.1399 8.84526 16.4759 8.01769 16.2065C6.88475 14.673 6.21444 12.7736 6.21444 10.7122C6.21444 5.61524 10.317 1.5 15.3572 1.5C20.3975 1.5 24.5 5.61524 24.5 10.7122C24.5 15.8092 20.3975 19.9244 15.3572 19.9244C13.3756 19.9244 11.5435 19.2907 10.0457 18.2114Z" stroke="white" stroke-width="3"/>
<path d="M19.4731 13.0001C20.18 11.5861 21.5 7.5 16.9982 5.57544" stroke="white" stroke-width="2" stroke-linecap="round"/>
</svg>
