<svg width="590" height="343" viewBox="0 0 590 343" fill="none" xmlns="http://www.w3.org/2000/svg">
<g clip-path="url(#clip0_753_1424)">
<path d="M590 342.217V242.426H536.928C534.166 242.426 531.928 244.665 531.928 247.426V250.359V334.284V337.217C531.928 339.979 534.166 342.217 536.928 342.217H590Z" fill="#1E4DC2"/>
<path d="M531.928 250.359L489.731 224.054L470.931 218.626V238.668H435.419H410.995C409.188 238.668 407.371 238.946 405.806 239.849C398.384 244.13 389.242 255.633 408.154 265.75C408.191 265.768 408.228 265.787 408.263 265.808C408.226 265.789 408.19 265.769 408.154 265.75C403.885 263.722 381.117 279.755 406.591 292.113C401.205 291.25 383.313 308.233 408.263 318.418C400.291 319.027 392.607 332.598 406.591 338.877H512.292C515.3 338.877 526.636 335.815 531.928 334.284V250.359Z" fill="#F9D3AC"/>
<path d="M435.419 212.363H470.931H481.265C492.863 212.363 502.265 202.961 502.265 191.363V148.604C502.265 137.006 492.863 127.604 481.265 127.604H416.2V212.363H435.419Z" fill="#1E4DC2"/>
<path d="M470.931 238.668V218.626V212.363H435.419V238.668H470.931Z" fill="#1E4DC2"/>
<path d="M241.565 297.123V38.251C241.565 15.2861 208.56 10.2759 208.56 38.251V130.526V214.034V297.123C208.56 324.68 241.565 324.68 241.565 297.123Z" fill="#1E4DC2"/>
<path d="M416.2 212.363V127.604C380.967 121.062 296.713 94.0338 241.565 38.251V297.123C273.735 268.87 353.699 212.363 416.2 212.363Z" fill="#F0F5FF"/>
<path d="M208.56 130.526L198.125 136.343C191.155 140.227 186.835 147.581 186.835 155.559V183.205C186.835 189.042 189.155 194.64 193.284 198.766L208.56 214.034V130.526Z" fill="#F0F5FF"/>
<path d="M408.263 318.418C400.291 319.027 392.607 332.598 406.591 338.877H512.292C515.3 338.877 526.636 335.815 531.928 334.284V314.242L512.292 318.418L408.263 318.418Z" fill="#DAB997"/>
<path d="M531.928 337.217C531.928 339.979 534.166 342.217 536.928 342.217H590V314.242H531.928V334.284V337.217Z" fill="#193D95"/>
<path d="M197.698 136.581C190.512 140.3 186 147.715 186 155.806V182.686C186 188.828 188.568 194.691 193.082 198.856L196.862 202.343L197.698 136.581Z" fill="#DDE8FC"/>
<path d="M502.265 185.641L416.201 185.661V212.902L488.644 212.885C496.167 212.884 502.265 206.784 502.265 199.261V185.641Z" fill="#193D95"/>
<path d="M416.201 185.661C378.618 186.918 291.526 205.087 241.565 267.784V297.54C271.463 269.461 347.798 213.237 416.201 212.902V185.661Z" fill="#DDE8FC"/>
<path d="M22.4616 70.2205C-10.6974 86.2511 72.1414 98.406 70.1148 138.38C68.0882 178.353 81.3388 91.6675 119.249 89.9871C156.794 88.3228 54.0975 54.8766 68.211 14.3742C62.031 30.4963 46.5526 58.5738 22.4616 70.2205Z" fill="#1E4DC2"/>
<path d="M96.7736 239.865C74.6531 240.484 117.185 267.528 106.324 288.922C95.463 310.317 123.879 266.101 145.11 274.511C166.136 282.839 117.89 239.247 135.518 220.538C128.193 227.847 112.845 239.415 96.7736 239.865Z" fill="#B3CCFF"/>
<path d="M16.5768 202.068C10.7352 217.153 40.9982 196.137 52.3458 209.511C63.6934 222.885 41.9305 191.221 53.6059 179.29C65.1689 167.474 22.135 187.66 14.512 170.484C17.3658 177.49 20.8208 191.108 16.5768 202.068Z" fill="#F0F5FF"/>
</g>
<defs>
<clipPath id="clip0_753_1424">
<rect width="590" height="341.804" fill="white" transform="translate(0 0.216797)"/>
</clipPath>
</defs>
</svg>
