<svg width="590" height="342" viewBox="0 0 590 342" fill="none" xmlns="http://www.w3.org/2000/svg">
<path d="M590 341.804V242.013H536.928C534.166 242.013 531.928 244.252 531.928 247.013V249.946V333.871V336.804C531.928 339.566 534.166 341.804 536.928 341.804H590Z" fill="#1E4DC2"/>
<path d="M531.928 249.946L489.731 223.641L470.931 218.213V238.255H435.419H410.995C409.188 238.255 407.371 238.533 405.806 239.436C398.384 243.717 389.242 255.22 408.154 265.337C408.191 265.355 408.228 265.374 408.263 265.395C408.226 265.376 408.19 265.356 408.154 265.337C403.885 263.309 381.117 279.342 406.591 291.7C401.205 290.837 383.313 307.82 408.263 318.005C400.291 318.614 392.607 332.185 406.591 338.464H512.292C515.3 338.464 526.636 335.402 531.928 333.871V249.946Z" fill="#F9D3AC"/>
<path d="M435.419 211.95H470.931H481.265C492.863 211.95 502.265 202.548 502.265 190.95V148.191C502.265 136.593 492.863 127.191 481.265 127.191H416.2V211.95H435.419Z" fill="#1E4DC2"/>
<path d="M470.931 238.255V218.213V211.95H435.419V238.255H470.931Z" fill="#1E4DC2"/>
<path d="M241.565 296.71V37.8379C241.565 14.8731 208.56 9.86284 208.56 37.8379V130.113V213.62V296.71C208.56 324.267 241.565 324.267 241.565 296.71Z" fill="#1E4DC2"/>
<path d="M416.2 211.95V127.191C380.967 120.649 296.713 93.6207 241.565 37.8379V296.71C273.735 268.457 353.699 211.95 416.2 211.95Z" fill="#F0F5FF"/>
<path d="M208.56 130.113L198.125 135.93C191.155 139.814 186.835 147.167 186.835 155.146V182.792C186.835 188.629 189.155 194.227 193.284 198.353L208.56 213.62V130.113Z" fill="#F0F5FF"/>
<path d="M408.263 318.005C400.291 318.614 392.607 332.185 406.591 338.464H512.292C515.3 338.464 526.636 335.402 531.928 333.871V313.829L512.292 318.005L408.263 318.005Z" fill="#DAB997"/>
<path d="M531.928 336.804C531.928 339.566 534.166 341.804 536.928 341.804H590V313.829H531.928V333.871V336.804Z" fill="#193D95"/>
<path d="M197.698 136.168C190.512 139.887 186 147.302 186 155.393V182.273C186 188.415 188.568 194.278 193.082 198.442L196.862 201.93L197.698 136.168Z" fill="#DDE8FC"/>
<path d="M502.265 185.228L416.201 185.247V212.489L488.644 212.472C496.167 212.47 502.265 206.371 502.265 198.848V185.228Z" fill="#193D95"/>
<path d="M416.201 185.247C378.618 186.505 291.526 204.674 241.565 267.371V297.127C271.463 269.048 347.798 212.824 416.201 212.489V185.247Z" fill="#DDE8FC"/>
</svg>
