<svg width="590" height="343" viewBox="0 0 590 343" fill="none" xmlns="http://www.w3.org/2000/svg">
<g clip-path="url(#clip0_753_1415)">
<path d="M590 342.413V242.621H536.928C534.166 242.621 531.928 244.86 531.928 247.621V250.555V334.479V337.413C531.928 340.174 534.166 342.413 536.928 342.413H590Z" fill="#1E4DC2"/>
<path d="M531.928 250.555L489.731 224.25L470.931 218.822V238.864H435.419H410.995C409.188 238.864 407.371 239.142 405.806 240.044C398.384 244.325 389.242 255.829 408.154 265.945C408.191 265.963 408.228 265.983 408.263 266.003C408.226 265.984 408.19 265.965 408.154 265.945C403.885 263.917 381.117 279.95 406.591 292.308C401.205 291.446 383.313 308.429 408.263 318.613C400.291 319.222 392.607 332.793 406.591 339.072H512.292C515.3 339.072 526.636 336.01 531.928 334.479V250.555Z" fill="#F9D3AC"/>
<path d="M435.419 212.559H470.931H481.265C492.863 212.559 502.265 203.157 502.265 191.559V148.799C502.265 137.201 492.863 127.799 481.265 127.799H416.2V212.559H435.419Z" fill="#1E4DC2"/>
<path d="M470.931 238.864V218.822V212.559H435.419V238.864H470.931Z" fill="#1E4DC2"/>
<path d="M241.565 297.319V38.4463C241.565 15.4815 208.56 10.4712 208.56 38.4463V130.722V214.229V297.319C208.56 324.876 241.565 324.876 241.565 297.319Z" fill="#1E4DC2"/>
<path d="M416.2 212.559V127.799C380.967 121.258 296.713 94.2291 241.565 38.4463V297.319C273.735 269.065 353.699 212.559 416.2 212.559Z" fill="#F0F5FF"/>
<path d="M208.56 130.722L198.125 136.538C191.155 140.422 186.835 147.776 186.835 155.755V183.4C186.835 189.237 189.155 194.835 193.284 198.961L208.56 214.229V130.722Z" fill="#F0F5FF"/>
<path d="M408.263 318.613C400.291 319.222 392.607 332.793 406.591 339.072H512.292C515.3 339.072 526.636 336.01 531.928 334.479V314.438L512.292 318.613L408.263 318.613Z" fill="#DAB997"/>
<path d="M531.928 337.413C531.928 340.174 534.166 342.413 536.928 342.413H590V314.438H531.928V334.479V337.413Z" fill="#193D95"/>
<path d="M197.698 136.776C190.512 140.495 186 147.911 186 156.002V182.881C186 189.023 188.568 194.886 193.082 199.051L196.862 202.538L197.698 136.776Z" fill="#DDE8FC"/>
<path d="M502.265 185.836L416.201 185.856V213.097L488.644 213.081C496.167 213.079 502.265 206.98 502.265 199.457V185.836Z" fill="#193D95"/>
<path d="M416.201 185.856C378.618 187.113 291.526 205.282 241.565 267.98V297.736C271.463 269.656 347.798 213.433 416.201 213.097V185.856Z" fill="#DDE8FC"/>
<path d="M96.7736 240.06C74.6531 240.679 117.185 267.723 106.324 289.118C95.463 310.512 123.879 266.296 145.11 274.706C166.136 283.035 117.89 239.442 135.518 220.733C128.193 228.042 112.845 239.61 96.7736 240.06Z" fill="#B3CCFF"/>
<path d="M16.5768 202.263C10.7352 217.349 40.9982 196.332 52.3458 209.706C63.6934 223.08 41.9305 191.416 53.6059 179.485C65.1689 167.669 22.135 187.855 14.512 170.679C17.3658 177.685 20.8208 191.303 16.5768 202.263Z" fill="#F0F5FF"/>
</g>
<defs>
<clipPath id="clip0_753_1415">
<rect width="590" height="341.804" fill="white" transform="translate(0 0.412109)"/>
</clipPath>
</defs>
</svg>
