<svg width="590" height="343" viewBox="0 0 590 343" fill="none" xmlns="http://www.w3.org/2000/svg">
<g clip-path="url(#clip0_753_1451)">
<path d="M590 342.631V242.84H536.928C534.166 242.84 531.928 245.079 531.928 247.84V250.773V334.698V337.631C531.928 340.393 534.166 342.631 536.928 342.631H590Z" fill="#1E4DC2"/>
<path d="M531.928 250.773L489.731 224.469L470.931 219.041V239.082H435.419H410.995C409.188 239.082 407.371 239.361 405.806 240.263C398.384 244.544 389.242 256.047 408.154 266.164C408.191 266.182 408.228 266.201 408.263 266.222C408.226 266.203 408.19 266.184 408.154 266.164C403.885 264.136 381.117 280.169 406.591 292.527C401.205 291.664 383.313 308.647 408.263 318.832C400.291 319.441 392.607 333.012 406.591 339.291H512.292C515.3 339.291 526.636 336.229 531.928 334.698V250.773Z" fill="#F9D3AC"/>
<path d="M435.419 212.778H470.931H481.265C492.863 212.778 502.265 203.375 502.265 191.778V149.018C502.265 137.42 492.863 128.018 481.265 128.018H416.2V212.778H435.419Z" fill="#1E4DC2"/>
<path d="M470.931 239.082V219.041V212.778H435.419V239.082H470.931Z" fill="#1E4DC2"/>
<path d="M241.565 297.537V38.665C241.565 15.7002 208.56 10.69 208.56 38.665V130.94V214.448V297.537C208.56 325.094 241.565 325.094 241.565 297.537Z" fill="#1E4DC2"/>
<path d="M416.2 212.778V128.018C380.967 121.476 296.713 94.4478 241.565 38.665V297.537C273.735 269.284 353.699 212.778 416.2 212.778Z" fill="#F0F5FF"/>
<path d="M208.56 130.94L198.125 136.757C191.155 140.641 186.835 147.995 186.835 155.973V183.619C186.835 189.456 189.155 195.054 193.284 199.18L208.56 214.448V130.94Z" fill="#F0F5FF"/>
<path d="M408.263 318.832C400.291 319.441 392.607 333.012 406.591 339.291H512.292C515.3 339.291 526.636 336.229 531.928 334.698V314.656L512.292 318.832L408.263 318.832Z" fill="#DAB997"/>
<path d="M531.928 337.631C531.928 340.393 534.166 342.631 536.928 342.631H590V314.656H531.928V334.698V337.631Z" fill="#193D95"/>
<path d="M197.698 136.995C190.512 140.714 186 148.129 186 156.22V183.1C186 189.242 188.568 195.105 193.082 199.27L196.862 202.757L197.698 136.995Z" fill="#DDE8FC"/>
<path d="M502.265 186.055L416.201 186.075V213.316L488.644 213.299C496.167 213.298 502.265 207.198 502.265 199.675V186.055Z" fill="#193D95"/>
<path d="M416.201 186.075C378.618 187.332 291.526 205.501 241.565 268.198V297.954C271.463 269.875 347.798 213.651 416.201 213.316V186.075Z" fill="#DDE8FC"/>
<path d="M22.4616 70.6345C-10.6974 86.6651 72.1414 98.8201 70.1148 138.794C68.0882 178.767 81.3388 92.0816 119.249 90.4012C156.794 88.7369 54.0975 55.2907 68.211 14.7882C62.031 30.9104 46.5526 58.9879 22.4616 70.6345Z" fill="#1E4DC2"/>
<path d="M96.7736 240.279C74.6531 240.898 117.185 267.942 106.324 289.336C95.463 310.731 123.879 266.515 145.11 274.925C166.136 283.254 117.89 239.661 135.518 220.952C128.193 228.261 112.845 239.829 96.7736 240.279Z" fill="#B3CCFF"/>
<path d="M16.5768 202.482C10.7352 217.567 40.9982 196.551 52.3458 209.925C63.6934 223.299 41.9305 191.635 53.6059 179.704C65.1689 167.888 22.135 188.074 14.512 170.898C17.3658 177.904 20.8208 191.522 16.5768 202.482Z" fill="#F0F5FF"/>
</g>
<defs>
<clipPath id="clip0_753_1451">
<rect width="590" height="341.804" fill="white" transform="translate(0 0.630859)"/>
</clipPath>
</defs>
</svg>
