<svg width="590" height="342" viewBox="0 0 590 342" fill="none" xmlns="http://www.w3.org/2000/svg">
<g clip-path="url(#clip0_753_1433)">
<path d="M590 342.022V242.231H536.928C534.166 242.231 531.928 244.469 531.928 247.231V250.164V334.089V337.022C531.928 339.783 534.166 342.022 536.928 342.022H590Z" fill="#1E4DC2"/>
<path d="M531.928 250.164L489.731 223.859L470.931 218.431V238.473H435.419H410.995C409.188 238.473 407.371 238.751 405.806 239.654C398.384 243.935 389.242 255.438 408.154 265.555C408.191 265.573 408.228 265.592 408.263 265.613C408.226 265.593 408.19 265.574 408.154 265.555C403.885 263.526 381.117 279.56 406.591 291.918C401.205 291.055 383.313 308.038 408.263 318.222C400.291 318.832 392.607 332.403 406.591 338.682H512.292C515.3 338.682 526.636 335.62 531.928 334.089V250.164Z" fill="#F9D3AC"/>
<path d="M435.419 212.168H470.931H481.265C492.863 212.168 502.265 202.766 502.265 191.168V148.408C502.265 136.81 492.863 127.408 481.265 127.408H416.2V212.168H435.419Z" fill="#1E4DC2"/>
<path d="M470.931 238.473V218.431V212.168H435.419V238.473H470.931Z" fill="#1E4DC2"/>
<path d="M241.565 296.928V38.0556C241.565 15.0908 208.56 10.0806 208.56 38.0556V130.331V213.838V296.928C208.56 324.485 241.565 324.485 241.565 296.928Z" fill="#1E4DC2"/>
<path d="M416.2 212.168V127.408C380.967 120.867 296.713 93.8385 241.565 38.0556V296.928C273.735 268.675 353.699 212.168 416.2 212.168Z" fill="#F0F5FF"/>
<path d="M208.56 130.331L198.125 136.147C191.155 140.032 186.835 147.385 186.835 155.364V183.01C186.835 188.847 189.155 194.445 193.284 198.571L208.56 213.838V130.331Z" fill="#F0F5FF"/>
<path d="M408.263 318.222C400.291 318.832 392.607 332.403 406.591 338.682H512.292C515.3 338.682 526.636 335.62 531.928 334.089V314.047L512.292 318.222L408.263 318.222Z" fill="#DAB997"/>
<path d="M531.928 337.022C531.928 339.783 534.166 342.022 536.928 342.022H590V314.047H531.928V334.089V337.022Z" fill="#193D95"/>
<path d="M197.698 136.385C190.512 140.104 186 147.52 186 155.611V182.49C186 188.633 188.568 194.495 193.082 198.66L196.862 202.148L197.698 136.385Z" fill="#DDE8FC"/>
<path d="M502.265 185.445L416.201 185.465V212.707L488.644 212.69C496.167 212.688 502.265 206.589 502.265 199.066V185.445Z" fill="#193D95"/>
<path d="M416.201 185.465C378.618 186.723 291.526 204.892 241.565 267.589V297.345C271.463 269.265 347.798 213.042 416.201 212.707V185.465Z" fill="#DDE8FC"/>
<path d="M22.4616 70.0252C-10.6974 86.0557 72.1414 98.2107 70.1148 138.184C68.0882 178.158 81.3388 91.4722 119.249 89.7918C156.794 88.1275 54.0975 54.6813 68.211 14.1788C62.031 30.301 46.5526 58.3785 22.4616 70.0252Z" fill="#B3CCFF"/>
<path d="M96.7736 239.669C74.6531 240.288 117.185 267.333 106.324 288.727C95.463 310.121 123.879 265.906 145.11 274.315C166.136 282.644 117.89 239.052 135.518 220.342C128.193 227.651 112.845 239.22 96.7736 239.669Z" fill="#F0F5FF"/>
<path d="M16.5768 201.873C10.7352 216.958 40.9982 195.942 52.3458 209.316C63.6934 222.69 41.9305 191.025 53.6059 179.095C65.1689 167.279 22.135 187.464 14.512 170.289C17.3658 177.295 20.8208 190.913 16.5768 201.873Z" fill="#1E4DC2"/>
</g>
<defs>
<clipPath id="clip0_753_1433">
<rect width="590" height="341.804" fill="white" transform="translate(0 0.0214844)"/>
</clipPath>
</defs>
</svg>
