<svg width="590" height="343" viewBox="0 0 590 343" fill="none" xmlns="http://www.w3.org/2000/svg">
<path d="M590 342.115V242.324H536.928C534.166 242.324 531.928 244.562 531.928 247.324V250.257V334.182V337.115C531.928 339.876 534.166 342.115 536.928 342.115H590Z" fill="#1E4DC2"/>
<path d="M531.928 250.257L489.731 223.952L470.931 218.524V238.566H435.419H410.995C409.188 238.566 407.371 238.844 405.806 239.747C398.384 244.027 389.242 255.531 408.154 265.648C408.191 265.665 408.228 265.685 408.263 265.706C408.226 265.686 408.19 265.667 408.154 265.648C403.885 263.619 381.117 279.652 406.591 292.01C401.205 291.148 383.313 308.131 408.263 318.315C400.291 318.924 392.607 332.495 406.591 338.774H512.292C515.3 338.774 526.636 335.712 531.928 334.182V250.257Z" fill="#F9D3AC"/>
<path d="M435.419 212.261H470.931H481.265C492.863 212.261 502.265 202.859 502.265 191.261V148.501C502.265 136.903 492.863 127.501 481.265 127.501H416.2V212.261H435.419Z" fill="#1E4DC2"/>
<path d="M470.931 238.566V218.524V212.261H435.419V238.566H470.931Z" fill="#1E4DC2"/>
<path d="M241.565 297.021V38.1484C241.565 15.1836 208.56 10.1734 208.56 38.1484V130.424V213.931V297.021C208.56 324.578 241.565 324.578 241.565 297.021Z" fill="#1E4DC2"/>
<path d="M416.2 212.261V127.501C380.967 120.96 296.713 93.9312 241.565 38.1484V297.021C273.735 268.768 353.699 212.261 416.2 212.261Z" fill="#F0F5FF"/>
<path d="M208.56 130.424L198.125 136.24C191.155 140.125 186.835 147.478 186.835 155.457V183.103C186.835 188.94 189.155 194.537 193.284 198.664L208.56 213.931V130.424Z" fill="#F0F5FF"/>
<path d="M408.263 318.315C400.291 318.924 392.607 332.495 406.591 338.774H512.292C515.3 338.774 526.636 335.712 531.928 334.182V314.14L512.292 318.315L408.263 318.315Z" fill="#DAB997"/>
<path d="M531.928 337.115C531.928 339.876 534.166 342.115 536.928 342.115H590V314.14H531.928V334.182V337.115Z" fill="#193D95"/>
<path d="M197.698 136.478C190.512 140.197 186 147.613 186 155.704V182.583C186 188.725 188.568 194.588 193.082 198.753L196.862 202.24L197.698 136.478Z" fill="#DDE8FC"/>
<path d="M502.265 185.538L416.201 185.558V212.799L488.644 212.783C496.167 212.781 502.265 206.682 502.265 199.159V185.538Z" fill="#193D95"/>
<path d="M416.201 185.558C378.618 186.815 291.526 204.984 241.565 267.682V297.438C271.463 269.358 347.798 213.135 416.201 212.799V185.558Z" fill="#DDE8FC"/>
<path d="M22.4616 70.1179C-10.6974 86.1485 72.1414 98.3035 70.1148 138.277C68.0882 178.251 81.3388 91.565 119.249 89.8846C156.794 88.2203 54.0975 54.7741 68.211 14.2716C62.031 30.3938 46.5526 58.4713 22.4616 70.1179Z" fill="#1E4DC2"/>
<path d="M96.7731 239.762C74.6526 240.381 117.184 267.426 106.323 288.82C95.4626 310.214 123.879 265.999 145.109 274.408C166.136 282.737 117.89 239.144 135.518 220.435C128.192 227.744 112.844 239.312 96.7731 239.762Z" fill="#B3CCFF"/>
<path d="M16.5768 201.965C10.7352 217.051 40.9982 196.034 52.3458 209.408C63.6934 222.782 41.9305 191.118 53.6059 179.187C65.1689 167.371 22.135 187.557 14.512 170.382C17.3658 177.387 20.8208 191.006 16.5768 201.965Z" fill="#F0F5FF"/>
</svg>
