<svg width="590" height="343" viewBox="0 0 590 343" fill="none" xmlns="http://www.w3.org/2000/svg">
<g clip-path="url(#clip0_753_1442)">
<path d="M590 342.827V243.036H536.928C534.166 243.036 531.928 245.274 531.928 248.036V250.969V334.893V337.827C531.928 340.588 534.166 342.827 536.928 342.827H590Z" fill="#1E4DC2"/>
<path d="M531.928 250.969L489.731 224.664L470.931 219.236V239.278H435.419H410.995C409.188 239.278 407.371 239.556 405.806 240.459C398.384 244.739 389.242 256.243 408.154 266.359C408.191 266.377 408.228 266.397 408.263 266.418C408.226 266.398 408.19 266.379 408.154 266.359C403.885 264.331 381.117 280.364 406.591 292.722C401.205 291.86 383.313 308.843 408.263 319.027C400.291 319.636 392.607 333.207 406.591 339.486H512.292C515.3 339.486 526.636 336.424 531.928 334.893V250.969Z" fill="#F9D3AC"/>
<path d="M435.419 212.973H470.931H481.265C492.863 212.973 502.265 203.571 502.265 191.973V149.213C502.265 137.615 492.863 128.213 481.265 128.213H416.2V212.973H435.419Z" fill="#1E4DC2"/>
<path d="M470.931 239.278V219.236V212.973H435.419V239.278H470.931Z" fill="#1E4DC2"/>
<path d="M241.565 297.733V38.8603C241.565 15.8955 208.56 10.8853 208.56 38.8603V131.136V214.643V297.733C208.56 325.29 241.565 325.29 241.565 297.733Z" fill="#1E4DC2"/>
<path d="M416.2 212.973V128.213C380.967 121.672 296.713 94.6431 241.565 38.8603V297.733C273.735 269.479 353.699 212.973 416.2 212.973Z" fill="#F0F5FF"/>
<path d="M208.56 131.136L198.125 136.952C191.155 140.836 186.835 148.19 186.835 156.169V183.814C186.835 189.652 189.155 195.249 193.284 199.376L208.56 214.643V131.136Z" fill="#F0F5FF"/>
<path d="M408.263 319.027C400.291 319.636 392.607 333.207 406.591 339.486H512.292C515.3 339.486 526.636 336.424 531.928 334.893V314.852L512.292 319.027L408.263 319.027Z" fill="#DAB997"/>
<path d="M531.928 337.827C531.928 340.588 534.166 342.827 536.928 342.827H590V314.852H531.928V334.893V337.827Z" fill="#193D95"/>
<path d="M197.698 137.19C190.512 140.909 186 148.325 186 156.416V183.295C186 189.437 188.568 195.3 193.082 199.465L196.862 202.952L197.698 137.19Z" fill="#DDE8FC"/>
<path d="M502.265 186.25L416.201 186.27V213.511L488.644 213.495C496.167 213.493 502.265 207.394 502.265 199.871V186.25Z" fill="#193D95"/>
<path d="M416.201 186.27C378.618 187.527 291.526 205.696 241.565 268.394V298.15C271.463 270.07 347.798 213.847 416.201 213.511V186.27Z" fill="#DDE8FC"/>
<path d="M22.4616 70.8298C-10.6974 86.8604 72.1414 99.0154 70.1148 138.989C68.0882 178.963 81.3388 92.2769 119.249 90.5965C156.794 88.9322 54.0975 55.486 68.211 14.9835C62.031 31.1057 46.5526 59.1832 22.4616 70.8298Z" fill="#F0F5FF"/>
<path d="M96.7736 240.474C74.6531 241.093 117.185 268.137 106.324 289.532C95.463 310.926 123.879 266.71 145.11 275.12C166.136 283.449 117.89 239.856 135.518 221.147C128.193 228.456 112.845 240.024 96.7736 240.474Z" fill="#1E4DC2"/>
<path d="M16.5768 202.677C10.7352 217.763 40.9982 196.746 52.3458 210.12C63.6934 223.494 41.9305 191.83 53.6059 179.899C65.1689 168.083 22.135 188.269 14.512 171.093C17.3658 178.099 20.8208 191.717 16.5768 202.677Z" fill="#B3CCFF"/>
</g>
<defs>
<clipPath id="clip0_753_1442">
<rect width="590" height="341.804" fill="white" transform="translate(0 0.826172)"/>
</clipPath>
</defs>
</svg>
