<svg width="590" height="343" viewBox="0 0 590 343" fill="none" xmlns="http://www.w3.org/2000/svg">
<g clip-path="url(#clip0_753_1406)">
<path d="M590 342.608V242.817H536.928C534.166 242.817 531.928 245.055 531.928 247.817V250.75V334.675V337.608C531.928 340.369 534.166 342.608 536.928 342.608H590Z" fill="#1E4DC2"/>
<path d="M531.928 250.75L489.731 224.445L470.931 219.017V239.059H435.419H410.995C409.188 239.059 407.371 239.337 405.806 240.24C398.384 244.52 389.242 256.024 408.154 266.141C408.191 266.159 408.228 266.178 408.263 266.199C408.226 266.179 408.19 266.16 408.154 266.141C403.885 264.112 381.117 280.145 406.591 292.504C401.205 291.641 383.313 308.624 408.263 318.808C400.291 319.418 392.607 332.989 406.591 339.268H512.292C515.3 339.268 526.636 336.206 531.928 334.675V250.75Z" fill="#F9D3AC"/>
<path d="M435.419 212.754H470.931H481.265C492.863 212.754 502.265 203.352 502.265 191.754V148.994C502.265 137.396 492.863 127.994 481.265 127.994H416.2V212.754H435.419Z" fill="#1E4DC2"/>
<path d="M470.931 239.059V219.017V212.754H435.419V239.059H470.931Z" fill="#1E4DC2"/>
<path d="M241.565 297.514V38.6416C241.565 15.6768 208.56 10.6666 208.56 38.6416V130.917V214.424V297.514C208.56 325.071 241.565 325.071 241.565 297.514Z" fill="#1E4DC2"/>
<path d="M416.2 212.754V127.994C380.967 121.453 296.713 94.4244 241.565 38.6416V297.514C273.735 269.261 353.699 212.754 416.2 212.754Z" fill="#F0F5FF"/>
<path d="M208.56 130.917L198.125 136.733C191.155 140.618 186.835 147.971 186.835 155.95V183.596C186.835 189.433 189.155 195.031 193.284 199.157L208.56 214.424V130.917Z" fill="#F0F5FF"/>
<path d="M408.263 318.808C400.291 319.418 392.607 332.989 406.591 339.268H512.292C515.3 339.268 526.636 336.206 531.928 334.675V314.633L512.292 318.808L408.263 318.808Z" fill="#DAB997"/>
<path d="M531.928 337.608C531.928 340.369 534.166 342.608 536.928 342.608H590V314.633H531.928V334.675V337.608Z" fill="#193D95"/>
<path d="M197.698 136.971C190.512 140.69 186 148.106 186 156.197V183.076C186 189.219 188.568 195.081 193.082 199.246L196.862 202.734L197.698 136.971Z" fill="#DDE8FC"/>
<path d="M502.265 186.031L416.201 186.051V213.293L488.644 213.276C496.167 213.274 502.265 207.175 502.265 199.652V186.031Z" fill="#193D95"/>
<path d="M416.201 186.051C378.618 187.308 291.526 205.477 241.565 268.175V297.931C271.463 269.851 347.798 213.628 416.201 213.293V186.051Z" fill="#DDE8FC"/>
<path d="M96.7736 240.255C74.6531 240.874 117.185 267.919 106.324 289.313C95.463 310.707 123.879 266.492 145.11 274.901C166.136 283.23 117.89 239.638 135.518 220.928C128.193 228.237 112.845 239.806 96.7736 240.255Z" fill="#B3CCFF"/>
</g>
<defs>
<clipPath id="clip0_753_1406">
<rect width="590" height="341.804" fill="white" transform="translate(0 0.607422)"/>
</clipPath>
</defs>
</svg>
