<svg width="316" height="360" viewBox="0 0 316 360" fill="none" xmlns="http://www.w3.org/2000/svg">
<g filter="url(#filter0_d_511_1169)">
<path d="M84.3472 230C104.357 264.088 169.247 319.96 232.347 230H84.3472Z" fill="#FFDD00"/>
<path d="M84.3472 230C104.357 264.088 169.247 319.96 232.347 230H84.3472Z" stroke="white" stroke-width="5"/>
</g>
<path d="M142.369 49.5H162.847H181.369C184.131 49.5 186.369 51.7355 186.369 54.4969V75C281.853 98.8709 305.936 181.789 306.417 224.68C306.448 227.378 304.289 229.5 301.591 229.5H15.2266C12.4975 229.5 10.3242 227.276 10.3638 224.547C11.715 131.494 95.1124 86.1375 137.369 75V54.5C137.369 51.7386 139.608 49.5 142.369 49.5Z" fill="#F0F5FF"/>
<path d="M162.847 0V49.5M162.847 49.5H142.369C139.608 49.5 137.369 51.7386 137.369 54.5V75M162.847 49.5H181.369C184.131 49.5 186.369 51.7355 186.369 54.4969C186.369 59.4935 186.369 66.9148 186.369 75M137.369 75C95.1124 86.1375 11.715 131.494 10.3638 224.547C10.3242 227.276 12.4975 229.5 15.2266 229.5C60.5103 229.5 220.227 229.5 301.591 229.5C304.289 229.5 306.448 227.378 306.417 224.68C305.936 181.789 281.853 98.8709 186.369 75M137.369 75C156.504 71.419 167.231 71.3052 186.369 75" stroke="black" stroke-width="5"/>
<path d="M211.347 96C230.217 96 277.759 134.837 280.347 170C283.582 213.954 255.847 120.5 211.347 96Z" fill="#C7D5F2"/>
<path d="M100.847 240C105.847 246 118.099 259.272 127.847 261.5C145.347 265.5 108.847 245.5 100.847 240Z" fill="#FFF6BA"/>
<path d="M48.347 263.5C29.0137 276 -7.45295 301.2 1.34705 302C10.147 302.8 36.347 276.667 48.347 263.5Z" fill="#FFDD00"/>
<path d="M267.347 264C286.681 276.5 323.147 301.7 314.347 302.5C305.547 303.3 279.347 277.167 267.347 264Z" fill="#FFDD00"/>
<path d="M157.751 297.805C155.709 320.737 153.134 364.989 159.18 358.544C165.225 352.1 160.747 315.366 157.751 297.805Z" fill="#FFDD00"/>
<path d="M92.7039 290C79.9389 309.16 56.507 346.787 64.8989 344.02C73.2909 341.253 86.9322 306.854 92.7039 290Z" fill="#FFDD00"/>
<path d="M217.67 290C230.435 309.16 253.867 346.787 245.475 344.02C237.083 341.253 223.442 306.854 217.67 290Z" fill="#FFDD00"/>
<defs>
<filter id="filter0_d_511_1169" x="34.681" y="186.2" width="247.773" height="144.28" filterUnits="userSpaceOnUse" color-interpolation-filters="sRGB">
<feFlood flood-opacity="0" result="BackgroundImageFix"/>
<feColorMatrix in="SourceAlpha" type="matrix" values="0 0 0 0 0 0 0 0 0 0 0 0 0 0 0 0 0 0 127 0" result="hardAlpha"/>
<feOffset dy="4"/>
<feGaussianBlur stdDeviation="22.65"/>
<feComposite in2="hardAlpha" operator="out"/>
<feColorMatrix type="matrix" values="0 0 0 0 1 0 0 0 0 0.866667 0 0 0 0 0 0 0 0 1 0"/>
<feBlend mode="normal" in2="BackgroundImageFix" result="effect1_dropShadow_511_1169"/>
<feBlend mode="normal" in="SourceGraphic" in2="effect1_dropShadow_511_1169" result="shape"/>
</filter>
</defs>
</svg>
